# xmcd
#
# Track frame offsets: 
#        187
#        33917
#        51052
#        78695
#        99305
#        118287
#        186110
#        198932
#        229717
#
# Disc length: 3280 seconds
#
# Revision: 1
# Processed by: cddbd v1.5.2PL0 Copyright (c) Steve Scherf et al.
# Submitted via: ExactAudioCopy v1.0b2
#
DISCID=700cce09
DTITLE=Duke Ellington - seattle concert
DYEAR=1952
DGENRE=Jazz
TTITLE0=SKIN DEEP
TTITLE1=SULTRY SERENADE
TTITLE2=SOPHISTICATED LADY
TTITLE3=PERDIDO
TTITLE4=CARAVAN
TTITLE5=HARLEM SUITE
TTITLE6=THE HAWK TALKS
TTITLE7=ELLINGTON MEDLEY
TTITLE8=JAM WITH SAM
EXTD=YEAR: 1952
EXTT0=
EXTT1=
EXTT2=
EXTT3=
EXTT4=
EXTT5=
EXTT6=
EXTT7=
EXTT8=
PLAYORDER=
